<?xml version="1.0" encoding="UTF-8"?>
<svg id="Layer_1" data-name="Layer 1" xmlns="http://www.w3.org/2000/svg" viewBox="0 0 1200 1200">
  <defs>
    <style>
      .cls-1 {
        fill: #58101a;
        stroke-width: 0px;
      }
    </style>
  </defs>
  <path class="cls-1" d="M581.41,901.92c0-19.56,0-39.12,0-58.68,0-4.98.23-5.32,5.03-5.29,18.63.14,37.31-.48,55.88.74,25.11,1.64,44.19,13.91,54.43,37.29,6.71,15.32,7,31.52,1.43,47.56-6.76,19.44-20.21,31.84-39.67,38.19-8.39,2.74-16.94,3.95-25.69,3.97-15.6.04-31.19-.08-46.79.08-3.65.04-4.73-1.13-4.7-4.78.16-19.69.08-39.38.08-59.08ZM594.7,901.52h.02c0,15.99.05,31.99-.04,47.98-.02,3.38.87,5.01,4.71,4.94,11.5-.22,23,.08,34.5-.12,10.41-.19,20.41-2.42,29.56-7.61,14.01-7.95,22.25-20.13,24.58-35.89,2.42-16.39-.84-31.56-12.36-44.19-9.74-10.68-22.13-16.18-36.36-16.85-13.32-.62-26.69-.17-40.04-.42-3.83-.07-4.64,1.57-4.62,4.97.11,15.73.05,31.46.05,47.19Z"/>
  <g>
    <path class="cls-1" d="M563.05,593.31c-1.47-4.38-6.85-7.1-5.69-13.67,5.94,6,11.23,11.78,20.19,10.44-3.7-2.16-7.6-4.06-11.04-6.57-3.32-2.42-8.33-4.08-6.71-11.04,6.83,7.78,14.85,11.21,24.14,11.48.15-.35.3-.7.45-1.05-3.97-1.77-8.2-3.14-11.84-5.42-4.28-2.68-8.27-5.95-11.95-9.43-1.21-1.14-1.04-3.72-.88-5.9,6.83,7.61,15.34,10.81,25.19,11.39-3.13-1.65-6.42-3.06-9.35-5.01-4.33-2.9-8.53-6.04-12.53-9.37-1.76-1.46-2.46-3.69-.59-6.14,6.42,5.37,12.37,11.49,21.72,10.54-7.24-5.89-17.03-8.41-22.07-17.16,6.44,4.44,12.34,9.9,20.84,8.86l.53-1.04c-4.11-2.32-8.6-4.18-12.23-7.1-3.24-2.6-8.97-4.24-6.94-11.21,6.44,4.95,11.89,10.96,20.6,9.77-6.24-5.46-15.96-6.4-19.38-15.48,6.72,2.94,12.48,8.68,21,5.55-3.46-1.64-7.08-3.04-10.34-5.01-3.11-1.87-6.1-4.11-8.66-6.67-1.17-1.17-1.15-3.52-1.14-5.54,5.05,4.31,9.21,9.39,16.41,9.4-4.78-4.99-11.49-8.06-14.52-16.15,5.94,4.56,10.39,9.77,18.55,9.68-5.41-5.73-13.77-6.97-15.96-14.69,4.17,2.7,7.46,7.02,14.05,5.98-4.38-4.24-8.26-7.99-12.15-11.75.32-.49.64-.97.96-1.46,3.24,1.4,6.49,2.8,9.73,4.21-2.7-5.14-9.03-6.89-10.58-13.86,4.23,2.61,7.59,4.68,10.94,6.75.18-.26.37-.51.55-.77-3.7-3.54-7.39-7.09-11.09-10.63.33-.42.66-.83,1-1.25,3.72,2.1,7.45,4.2,11.17,6.31.42-.53.84-1.05,1.26-1.58-2.51-2.67-5.08-5.29-7.49-8.05-1.32-1.5-2.93-3.07-3.45-4.88-3.48-12.18-12.07-19.3-23.43-23.17-6.59-2.24-13.37-2.96-20.52-.22-9.19,3.52-15.46,14.03-12.74,23.52,1.69,5.9,8.24,8.14,14.26,4.84.92-.51,1.67-1.37,2.63-1.76,1.92-.77,4.5-2.37,5.75-1.69,1.44.78,2.25,3.62,2.42,5.64.47,5.66-2.15,9.92-6.97,12.82-7.11,4.27-14.43,5.69-22.06,1.33-4.21-2.4-6.47-6.21-6.96-10.9-.37-3.53-.15-7.13-.25-10.69-.04-1.34-.26-2.68-.82-4.24-3.01,5.31-7.42,7.3-13.06,6.58-5.52-.7-9.36-6.24-7.97-11.59.76-2.92,2.48-4.93,5.91-4.68,3.26.25,4.14,1.81,2.97,4.9-.36.95-.42,2.38.07,3.15.32.5,2.33.68,2.82.21,3.81-3.63,7.43-7.46,11.11-11.23-.26-.43-.51-.85-.77-1.28-1.64-.18-3.28-.39-4.93-.53-2.83-.24-4.31-1.91-4.58-4.59-.28-2.77,1.28-4.75,3.76-5.29,1.04-.23,3,1.07,3.63,2.19,1.2,2.16,2.28,2.96,4.66,1.72,5.68-2.98,11.44-5.8,18.14-9.18-1.73-.74-3.02-1.53-4.41-1.84-7.49-1.66-14.76.37-21.91,2.02-8.26,1.91-15.98,5.46-22.74,10.68-11.18,8.64-17.89,19.52-16.61,34.31.98,11.29,9.34,20.07,20.63,20.97,5.83.46,9.59-2.94,12.34-7.68.58-.99,1.04-2.05,1.7-3.35,4.25,2,4.56,5.58,4.15,9.11-.88,7.68-5.62,12.56-12.35,15.74-14.36,6.78-34.18-2.39-41.99-16.92-9.26-17.23-4.06-39.36,9.81-52.48,15.67-14.81,34.5-20.59,55.72-19.99,15.26.42,29.66,4.24,43.61,10.14.55.23,1.17.31,1.76.47.3-.28.6-.57.89-.85-1.94-2.44-3.64-5.13-5.84-7.3-14.67-14.44-32.72-21.02-52.95-21.37-10.64-.18-21.38.57-31.93,1.98-8.15,1.09-16.3,3.22-24.03,6.06-7.18,2.64-14.91,5.66-18.37,13.31-1.31,2.89-1.12,7.03-.2,10.19.75,2.58,3.99,3.72,7.05,3.07,1.39-.3,2.71-.92,4.04-1.39,2.62,4.13-.37,10.31-5.94,12.33-6.66,2.42-13.03,2.37-19.28-1.69-5.36-3.48-7.72-8.39-8.49-14.43-.16-1.23-.62-2.42-.94-3.63-1.17.45-2.53.66-3.46,1.4-11.49,9.2-20.02,20.24-21.44,35.52-.53,5.7-.66,11.39,2.89,16.37,2.28,3.19,3.42,3.07,5.03-.39,3.91-8.41,15.79-10.74,24.35-5.45,10.05,6.2,8.56,24.02-3.15,30.55-10.28,5.73-20.68,4.71-31.37,1.24-23.76-7.73-33.77-35.75-31.2-58.55,2.43-21.58,12.08-39.09,27.94-53.33,8.07-7.25,17.56-12.38,27.62-16.65,19.01-8.08,38.87-9.67,59.02-8.14,22.89,1.74,44.94,7.06,65.98,16.69,11.38,5.21,22.14,11.03,31.24,19.68.63.6,1.44,1.03,2.97,2.09-4.14-8.37-10.39-13.67-16.29-19.15-11.83-11-25.63-19.09-40.75-24.44-14.62-5.17-29.64-9.19-44.51-13.62-12.56-3.75-25.35-6.7-38.52-5.99-5.08.28-10.11,2.42-15.04,4.08-1.46.49-3,2.05-3.61,3.5-.91,2.16-1.92,5.01-1.19,6.89.59,1.51,3.65,2.61,5.74,2.86,4.55.55,5.13,1.19,3.08,5.26-3.13,6.21-12.29,8.91-19.45,5.46-4.83-2.33-8.59-5.63-10.53-11.13-1.71-4.84-.03-8.76,1.49-12.94.26-.7.59-1.38.89-2.07-.2-.38-.4-.76-.6-1.14-3.13,1.25-6.44,2.18-9.37,3.81-18.59,10.33-30.13,26.72-38.7,45.59-.6,1.32-1.27,2.61-1.98,3.88-.23.42-.71.7-1.92,1.86-1.74-6.27-4.04-11.78-4.7-17.49-1.99-17.13-.1-33.79,8.69-49.07,8.46-14.7,20.05-25.93,36.01-32.41,9.91-4.02,20.05-6.74,30.79-6.27,11.93.52,22.9,4.72,33.62,9.59,16.05,7.28,31.95,14.91,48.09,21.99,23.62,10.36,45.58,23.16,63.98,41.52.88.88,1.92,1.6,2.88,2.4.31-.17.62-.34.93-.51-.36-1.21-.53-2.53-1.11-3.62-8.69-16.51-21.32-29.84-35.32-41.75-13.55-11.53-27.69-22.4-41.93-33.09-8.67-6.51-18.41-11.25-29.14-13.69-4.2-.95-7.91-.2-11.17,2.4-2.89,2.3-2.51,4.62.57,6.47,1.33.8,2.38,2.07,3.55,3.12-1.87,1.71-3.49,4.4-5.65,4.94-7.12,1.76-14.29-2.6-17.44-9.82-2.69-6.16-.25-14.94,5.66-18.72,3.48-2.23,7.44-3.72,11.39-5.64-2.29-4.15-6.74-4.41-10.39-5.64-12.02-4.06-23.99-1.88-35.92.86-9.89,2.27-18.96,6.33-27.39,11.91-.96.64-2.13.96-4.13,1.83.21-2.7-.05-4.94.6-6.87,7.09-21.12,21.53-35.93,41.31-45.08,18.19-8.41,37.63-10.27,57.34-6.12,33.95,7.15,59.82,26.93,81.84,52.72,11.25,13.18,21.75,26.89,29.64,42.34,6.03,11.82,11.2,24.07,16.77,36.13.36.78.79,1.52,1.18,2.29.34-.04.69-.09,1.03-.13,0-1.6.33-3.28-.05-4.78-2.43-9.43-4.81-18.88-7.6-28.21-3.2-10.73-6.46-21.46-10.3-31.97-4.43-12.1-8.98-24.22-14.51-35.83-3.87-8.12-9.13-15.66-14.43-22.99-3.84-5.31-9.22-9.19-16.15-9.7-2.42-.18-5.05.15-7.29,1.01-1.02.39-1.7,2.61-1.85,4.07-.22,2.15.16,4.36.29,6.54-3.06-.19-6.53.48-9.1-.74-6.27-2.98-9.26-9.71-7.97-15.78,1.22-5.73,7.68-10.85,14.65-11.54,2.31-.23,4.63-.32,7.16-1.24-11.08-10.3-24.23-15.89-38.98-18.3-15.06-2.46-29.37-.82-42.6,7.54-.32-.2-.64-.41-.95-.61.44-1.74.59-3.62,1.37-5.19,5.23-10.45,13.96-17.27,23.9-22.86,15.56-8.74,32.34-12.33,49.95-10.88,19.59,1.61,36.52,9.62,50.6,23.48,12.35,12.16,21.16,26.52,26.45,42.98,2.21,6.88,4.03,13.9,5.75,20.93.63,2.55.46,5.3.66,7.96l-1.21.19c-1.85-4.81-3.53-9.7-5.6-14.42-5.88-13.41-11.77-26.88-22.28-37.49-3.5-3.54-7.7-6.4-11.68-9.45-.92-.71-2.23-.9-3.6-.71,4.29,4.93,8.82,9.66,12.8,14.82,7.78,10.09,13.82,21.27,17.97,33.26,4.12,11.91,7.9,24.02,10.68,36.31,2.52,11.17,3.82,22.65,5.07,34.06,1.77,16.15,2.99,32.36,4.47,48.54.1,1.12.5,2.21,1.67,3.33.19-1.2.47-2.4.57-3.61,1.62-20.28,2.56-40.65,5-60.83,2.91-24.03,8.57-47.49,19.94-69.17,6.09-11.62,13.36-22.44,22.77-31.7,1.34-1.32,2.57-2.76,3.44-4.52-11.73,6.32-20.19,15.84-27.33,26.85-7.08,10.92-11.61,22.91-15.73,35.13-.4-.04-.81-.09-1.21-.13.18-3.17.02-6.4.61-9.49,2.49-13.01,6.48-25.58,12.77-37.26,10.02-18.61,23.75-33.7,43.55-41.98,18.8-7.86,38.14-8.79,58.14-3.71,13.25,3.37,24.4,9.53,34.22,18.68,4.44,4.14,8.66,10.83,9.89,16.15-29.61-13.06-56.55-7.97-81.56,10.42,0,.66-.02,1.32-.03,1.97,1.49.26,3.02.38,4.46.82,4.32,1.33,9.08,2.03,12.8,4.37,5.28,3.33,6.47,9.2,4.26,14.3-2.96,6.81-8.91,10.81-15.03,10.06-2.59-.32-3.93-1.12-2.4-4.13,2.7-5.28,1.6-7.3-4.23-7.8-5.59-.48-10.67,1.17-15.18,4.55-9.25,6.93-15.39,16.28-19.85,26.66-7.49,17.42-14.89,34.89-21.63,52.61-3.88,10.19-6.43,20.89-9.44,31.4-.5,1.76-.31,3.72-.44,5.58.4.08.8.17,1.2.25.94-2.19,1.94-4.35,2.8-6.56,10.33-26.6,26.48-49.32,46.25-69.66,11.83-12.16,24.65-23.07,39.41-31.56,21.2-12.19,43.88-19.2,68.47-16.69,27.52,2.81,49.52,15.67,64.24,39.52,3.2,5.18,4.92,11.3,7.11,17.06.56,1.48.31,3.26.51,6-23.03-15.07-46.83-20.77-72.71-13.51-.15.44-.3.87-.44,1.31,1.5.94,2.93,2.01,4.5,2.8,11.29,5.74,13.81,19.86,5.08,29.1-7.8,8.27-18.04,3.16-20.41-4.12,1.1-.34,2.38-.44,3.25-1.08,1.51-1.12,3.53-2.41,3.87-3.95.27-1.21-1.36-3.38-2.7-4.3-6.04-4.13-12.6-2.85-19.1-1.25-13.25,3.26-24,11.2-34.91,18.82-20.07,14.01-38.66,29.8-55.89,47.17-4.02,4.05-7.48,8.65-11.2,13,.36.38.71.75,1.07,1.13,3.85-2.55,7.68-5.14,11.56-7.65,14.33-9.27,29.86-16.09,45.61-22.51,7.56-3.08,14.89-6.7,22.47-9.73,8.92-3.56,17.95-6.85,27-10.05,7.44-2.63,15.04-4.8,22.46-7.48,12.68-4.57,25.41-4.71,38.54-2.06,15.21,3.06,27.66,10.81,38.51,21.33,16.34,15.85,22.2,35.66,20.88,57.99-.49,8.23-2.01,16.18-6.12,24.36-1.22-1.86-2.45-3.18-3.06-4.74-8.14-20.9-21.57-37.3-41.16-48.43-2.38-1.35-5.07-2.15-8.16-2.77,5.4,9.99,4.93,18.76-3.8,25.9-4.74,3.88-14.67,4.29-18.8,1.33-3.67-2.63-6.07-6-5.77-11.03.88.06,1.45-.05,1.87.16,3.14,1.5,6.04.66,7.71-1.96,1.72-2.7,1.27-5.83-.94-8.46-5-5.95-12.02-7.46-19.14-8.2-14.16-1.46-27.87,1.8-41.46,5.1-9.58,2.33-19.22,4.83-28.36,8.45-12.69,5.03-25.24,10.61-37.3,16.99-12.43,6.57-23.2,15.61-32.07,26.66-2.11,2.62-3.78,5.6-5.65,8.41.44.35.87.7,1.31,1.05,2.17-1.76,4.4-3.45,6.49-5.3,13.4-11.9,28.73-20.27,45.68-26.08,24.92-8.55,50.45-11.24,76.52-8.52,22.05,2.29,42.63,9.23,60.01,23.31,22.15,17.94,32.52,41.28,29.66,70.04-1.32,13.28-5.78,25.06-15.66,34.45-10.53,10.01-23.03,14.47-37.34,12.26-8.39-1.3-17.5-7.89-19.23-18.13-1.24-7.36,1.49-13.42,7.63-16.79,7.41-4.06,14.94-3.34,20.42,2.1,1.67,1.66,3.06,3.59,4.79,5.66,3.52-.97,4.56-4.17,5.57-7.21,2.9-8.77.55-17.02-3.14-24.91-4.02-8.6-9.95-15.84-17.52-21.64-.94-.72-2.29-.93-3.45-1.37-.3,1.09-.74,2.16-.86,3.27-.8,7.08-3.6,13.13-10.11,16.45-7.18,3.68-14.43,2.9-20.84-2.02-3.23-2.48-5.23-5.89-3.85-10.37.55-.06,1.05-.28,1.29-.11,3.49,2.41,6.83,2.62,10-.55,2.13-2.13,2.41-7.43.5-10.79-3.15-5.5-7.94-9.08-13.67-11.54-21.67-9.3-44.3-11.12-67.54-9.08-14.38,1.26-27.73,5.25-39.49,13.62-4.13,2.94-7.47,7.02-11.09,10.66-.56.56-.69,1.55-1.54,3.62,4.57-1.5,8.09-2.59,11.56-3.81,16.07-5.66,32.65-7.87,49.48-5.46,19.3,2.76,36.15,10.5,47.55,27.31,11.37,16.78,10.53,41.48-5.13,55.36-12.05,10.68-31.64,11.51-41.63.51-4.51-4.97-5.94-10.6-3.38-15.9.6-1.24,1.84-2.18,2.53-2.97,2.78,3.27,4.68,6.65,7.54,8.62,5.98,4.13,13.37,2.37,19.83-3.25,9.43-8.21,10.29-23.77,4.77-34.34-6.59-12.64-17.39-20.16-30.39-25.05-9.3-3.49-18.87-4.84-28.75-3.94-1.47.13-2.92.53-4.39.81-.08.41-.16.82-.24,1.24,7.49,3.66,14.98,7.32,22.47,10.98-.13-.49-.25-.98-.38-1.47,1.62-1.39,3.15-3.76,4.89-3.94,2.21-.22,4.51,1.36,4.43,4.48-.08,3.14-2.11,5.3-5.51,5.52-1.55.1-3.11.02-4.66.02-.23.33-.47.65-.7.98,3.36,3.89,6.58,7.92,10.18,11.57.79.8,2.98.45,4.43.16.36-.07.29-2.03.49-3.1.29-1.53.26-4.04,1.06-4.34,1.46-.56,3.67-.29,5.13.47,2.68,1.4,3.19,4.21,2.53,6.92-.89,3.68-3.22,6.44-6.99,7.37-5.45,1.35-10.57,1.13-14.64-4.58-.13,1.82-.42,3.64-.37,5.45.15,5.62-.21,11.14-3.54,15.94-4.76,6.87-15.33,9-22.7,4.55-4.55-2.75-8.93-5.8-10.3-11.44-.31-1.26-.69-2.65-.45-3.86,1.23-6.1,3.87-6.91,9.01-3.38,2.34,1.61,5.1,2.84,7.85,3.53,3.95.99,8.4-3.46,9.25-8.43,2.1-12.24-7.14-21.69-18.66-23.65-15.8-2.68-33.69,7.72-38.99,22.7-.43,1.22-.31,2.62-.65,3.89-.25.95-.59,2.22-1.3,2.63-4.93,2.85-4.97,2.79-9.39,9.3,2.89,1.9,4.62-.58,6.56-1.76,1.96-1.19,3.75-2.65,5.96-3.6-.92,6.64-7.57,7.81-11.77,12.32,5.76,1.36,7.69-4.27,12.02-5.5-.51,6.48-7.5,7.19-10,12.42,4.24-1.86,7.89-3.47,12.18-5.35.3,4.31-2.84,5.85-4.87,7.85-2.12,2.09-4.64,3.79-7.37,5.96,5.36,2.77,7.96-2.63,12.47-2.42-2.14,1.9-4.19,3.94-6.45,5.68-2.36,1.81-4.93,3.34-7.62,5.12q3.24,1.7,17.51-8.91c.31.23.63.46.94.68-2.23,2.78-4.23,5.79-6.75,8.27-2.54,2.5-5.6,4.47-8.43,6.67.22.39.44.78.66,1.17,2.72-1.3,5.61-2.33,8.11-3.96,2.61-1.71,4.85-3.99,7.96-6.62.79,4.17-1.01,6.75-3.51,8.4-4.93,3.25-10.19,6-15.32,8.96-.44.25-.87.53-1.36.83,2.88,2.05,4.18,2.17,10.89-.85,3.37-1.52,6.32-3.98,9.46-6.02.38.25.76.5,1.13.75-.89,1.62-1.37,3.84-2.73,4.76-5.09,3.43-10.46,6.44-15.74,9.6-.52.31-1.09.54-1.54,1.2,4.17,1.27,7.85-.7,11.24-2.4,3.43-1.71,6.32-4.49,9.6-6.91,1.92,3.38,0,5.89-2.32,7.44-5.12,3.42-10.6,6.31-15.92,9.42-.61.36-1.2.77-1.95,1.25,4.56,2.22,9,.5,21.04-7.11-.6,1.23-.88,2.92-1.86,3.6-4.55,3.12-9.28,5.97-13.97,8.9-1.76,1.1-3.56,2.12-6.31,3.75,5.64,1.43,9.25-1.21,12.75-3.15,3.74-2.07,7.04-4.94,10.68-7.56,1.73,2.33.8,4.27-.55,6.16-4.15,5.82-10.32,8.88-16.46,11.96-2.4,1.21-4.91,2.2-7.38,3.29.07.32.14.64.21.97,3.01-.67,6.1-1.12,9.02-2.06,3.1-1,6.22-2.18,9.01-3.82,2.71-1.59,5.02-3.88,8.03-6.28,1.06,5.6-2.16,7.9-5.27,9.98-5.31,3.55-10.83,6.79-16.93,10.58,9.44-.39,16.72-3.53,22.16-10.65.32.19.64.39.96.58-.24,1.21-.13,2.69-.81,3.56-1.44,1.85-3.06,3.72-5,4.97-5.47,3.51-11.13,6.72-16.72,10.04.13.36.26.72.39,1.08,4.22-1.4,8.68-2.31,12.58-4.33,3.86-1.99,7.14-5.1,11.32-8.2.48,4.45-1.67,6.7-4.29,8.3-7.21,4.4-14.58,8.54-22.5,13.14,8.37.41,13.97-5.37,21.35-8.76-4.5,7.55-12.67,9.19-17.79,14.5.17.36.35.71.52,1.07,2.35-1.03,4.84-1.82,7.02-3.13,4.63-2.77,9.08-5.86,13.67-8.71.91-.56,2.13-.62,3.21-.91,0,1.22.45,2.75-.12,3.59-1.58,2.37-3.26,4.89-5.5,6.56-5.16,3.86-10.69,7.22-16.03,10.85-1.7,1.16-3.26,2.51-4.88,3.78.17.41.35.81.52,1.22,5.07-1.67,10.42-2.78,15.12-5.18,4.78-2.44,8.92-6.14,13.75-8.9-5.99,12.11-16.87,19.79-26.22,28.95,12.39-2.93,20.18-12.3,28.48-21.22,1.43,4.88-2.36,12.14-9.99,18.74-5.54,4.79-11.46,9.14-17.17,13.64,2.47.54,10.39-2.95,15.21-7.1,4.33-3.74,8.41-7.76,12.88-11.92,1.54,4.71-1.04,7.84-3.61,10.36-4.69,4.58-9.9,8.63-14.89,12.9-.86.74-1.74,1.45-2.61,2.18.1.42.2.84.31,1.26,1.99-.31,4.34-.04,5.9-1.03,5.2-3.3,10.13-7.02,15.13-10.63,1.25-.9,2.37-1.98,3.96-3.33,2.61,5.73-.44,9.69-3.22,14.3,1.69.31,2.99.76,4.3.76,29.09.05,58.18.11,87.28.03,6.48-.02,7.11-.64,8.12-7.1.51-3.25,1.16-6.79.34-9.82-.73-2.7-2.98-5.53-5.36-7.07-2.02-1.3-5.01-.83-6.95,1.9-.9,1.26-2.76,1.84-4.41,2.86.71,1.11,1.31,2.04,2.48,3.86-1.74-.19-3.19.07-3.73-.51-.96-1.04-1.91-2.58-1.91-3.92.01-3.63,4.09-7.16,7.78-7.28,1.36-.04,2.7-.31,4.06-.47-.05-.49-.1-.98-.15-1.47-4.39.47-8.78.95-13.41,1.45.42-4.07,2.61-6.31,6.39-6.1,2.94.16,5.83,1.31,8.75,2.03.2-.48.4-.96.61-1.44-3.86-1.84-7.71-3.69-11.59-5.54,1.41-3.68,2.24-3.92,11.21-3.71-1.06-1.23-2.12-2.46-3.18-3.68,3.09-2.97,7.14-2.12,8.62,2.03q1.87,5.2,4.15,6.25c1.21-3.84-.26-9.46,5.75-10.25,1.72-.23,3.59.69,5.43,1.58-3.45,2.48-6.24,5.03-7.66,9.13,4.68-3.9,9.17-6.78,15.14-1.76-2.59,1.37-5,2.42-7.16,3.85-1.93,1.27-3.62,2.93-5.32,4.52-.11.1.53,1.03.83,1.56,2.18,3.71,5.02,1.96,7.7,1.59.04-.49.08-.99.12-1.48h-7.92c2.06-3.04,7.18-5.3,10.41-4.69,3.45.66,4.36,3.24,5.03,5.86-1.65.3-3.05.55-4.45.8.47,1.28,1.04,2.54,1.39,3.86.49,1.84,1.17,3.75,1.06,5.59-.05.89-1.63,1.85-2.71,2.43-.39.21-1.94-.67-1.9-.86.19-1.03.71-2,1.18-3.15-1.63-1.48-3.29-3.32-5.27-4.71-3.82-2.68-10.58.74-10.81,5.86-.24,5.36.49,10.78,1.1,16.14.08.67,2.03,1.57,3.13,1.6,9.91.23,19.83.33,29.74.33,1.06,0,2.35-.64,3.16-1.39,5.72-5.27,11.31-10.68,17.01-15.98,1.78-1.66,1.59-2.99-.02-4.66-4.48-4.65-5.25-9.2-2.68-14.77,1.94-4.2,8.43-8.03,13.35-7.85,3.41.13,6.83.32,10.24.38.82.01,1.65-.41,3.36-.87-1.45-1.33-2.21-2.49-3.27-2.91-5.66-2.24-11.44-4.25-17.64-2.44-3.13.92-6.29,1.96-9.19,3.43-2.28,1.15-4.29,2.94-1.7,5.91.4.47-.16,1.77-.27,2.69-1.82-.29-4.25.05-5.35-.99-3.48-3.31-4.67-3.42-6.77,1.11-1.31,2.82-2.31,5.93-.68,8.02,3.12,0,5.93-.8,7.47.25,1.22.84,1.41,4.05,1.07,6.03-.43,2.46-5.17,4.1-8.1,3.32-4.58-1.23-8.69-5.99-9.36-10.79-1.52-10.86,2.55-20.22,12.74-24.7.31-.14.5-.54.2-.19-1.68-2.52-2.97-4.92-4.75-6.87-.67-.74-3.1-1.04-3.7-.47-2.46,2.33-4.5,5.11-6.75,7.67-.61.69-1.42,1.21-2.14,1.81-.59-.79-1.57-1.53-1.69-2.39-1.04-7.05,2.73-18.91,11.69-21.63,3.71-1.13,7.5-2.02,10.79-2.89.59-3.13,1.17-6.22,1.8-9.58-5.31-2.58-10.27.47-16.52,2.13.77-2.35.96-3.99,1.76-5.22,6.57-10.15,19.33-13.28,30.34-7.85,9.79,4.83,16.19,12.86,21.7,21.86.46.75.97,1.46,2.28,2.07,0-1.52.43-3.21-.08-4.54-1.96-5.18-4-10.34-6.45-15.29-.94-1.89-2.89-3.46-4.72-4.65-.91-.59-2.6-.1-3.91.07-1.34.17-2.65.55-3.97.84.06-1.73-.52-3.88.29-5.12,2.69-4.15,3.01-4.47-1.79-5.85-4.27-1.23-8.87-1.31-13.48-1.92.52-.67,1.28-2.22,2.5-3.17,11.19-8.71,24.62-5.49,31.65,5.18,2.49,3.79,5.1,7.84,3.34,13.16-.64,1.94.87,4.55,1.24,6.88,1.1,6.84,2.12,13.69,3.94,20.64.25-1.98.41-3.97.75-5.94,1.17-6.74,2.45-13.47,3.59-20.21.21-1.23,0-2.55-.19-3.81-.18-1.19-.6-2.35-.15-3.94.75.63,1.5,1.26,2.46,2.07.2-.67.61-1.36.43-1.58-3.45-4.31.29-6.93,2.42-9.71,4.16-5.43,10.15-7.49,16.69-7.68,3.63-.1,5.56-.9,6.7-4.81,3.84-13.27,9.25-26.17,12.09-39.63,3.81-18.03,6.92-36.36,8.24-54.72,1.26-17.57-.13-35.34-.39-53.01-.04-2.51-.25-5.02-.32-7.53-.02-.9.15-1.8.3-3.4.62.91,1.03,1.24,1.08,1.62,3.45,26.07,6.66,52.15,3.25,78.49-1.66,12.82-2.73,25.77-5.32,38.4-2.59,12.6-6.38,24.99-10.34,37.24-3.15,9.74-6.79,19.41-11.23,28.61-6,12.44-12.48,24.71-19.63,36.52-14.52,23.95-32.66,45.01-53.33,63.9-17.8,16.27-37.3,30.14-58.5,41.62-17.52,9.49-35.71,17.67-54.88,22.98-15.07,4.18-30.58,6.89-46,9.72-22.54,4.14-45.32,3.25-67.98,1.49-10.6-.82-21.1-3.32-31.55-5.54-9.01-1.91-18.08-3.91-26.75-6.94-12.77-4.46-25.47-9.32-37.74-14.99-37.57-17.34-69.36-42.55-96.56-73.5-15.17-17.27-28.56-35.95-38.72-56.66-6.94-14.14-13.69-28.44-19.3-43.14-4.3-11.27-6.86-23.23-9.87-34.96-5.85-22.78-8.07-46.08-7.96-69.47.07-14.74,2.19-29.46,3.41-44.19.26-3.11.66-6.21.99-9.32.43,0,.87-.01,1.3-.02,0,2.35.08,4.7-.01,7.05-.53,13.98-1.82,27.99-1.48,41.95.52,21.01,2.51,41.98,7.93,62.37,4.21,15.88,9.27,31.54,13.86,47.33.72,2.47,2.15,2.91,4.43,2.75,9.1-.63,16.23,2.78,20.7,10.86.71,1.28.24,3.23.29,4.86.03.81,0,1.63,0,3.19,1.09-1.33,1.68-2.05,2.41-2.93.36.6.79,1.06.7,1.22-2.84,4.89.65,9.35,1,14.01.42,5.64,1.43,11.24,2.21,16.85.1.74.33,1.45.75,3.21,1.23-7.4,2.35-13.74,3.3-20.1.59-3.94.64-8.01.96-11.88.46-5.47,3.51-10.88,8.45-14.59,8.51-6.38,18.38-6.75,26.36-.55,1.65,1.29,2.8,3.23,4.15,4.84-3.85,0-7.22-.45-10.41.13-3.02.55-5.85,2.18-8.09,3.07,1.35,3.1,2.37,5.1,2.98,7.23.08.28-2.25,1.92-2.98,1.64-5-1.91-6.61-2.11-9.05,2.45-3.2,5.97-5.29,12.53-7.78,18.87-.18.45.26,1.13.49,2.06,3.66-4.79,6.84-9.4,10.49-13.6,5.09-5.86,11.13-10.36,18.95-12.27,9.78-2.39,19.72,1.43,24.88,10.11.6,1.01.72,2.32,1.27,4.21-5.9-.75-10.92-4.11-16.11-1.49.7,3.27,1.36,6.35,2.17,10.15,8.2.02,15.98,2.87,19.97,11.67,2.11,4.65,3.48,9.61,1.09,15.68-1.37-1.51-2.27-2.47-3.14-3.45-2.18-2.45-4.21-5.07-6.59-7.32-1.53-1.45-2.86-1.05-3.9,1.19-1.01,2.17-2.77,4-4.44,6.31.97.62,2.72,1.62,4.33,2.79,9.02,6.59,11.85,19.85,5.87,28.06-2.23,3.06-5.15,5.82-9.24,4.97-2.14-.44-4.6-2.14-5.68-3.99-.73-1.25.11-4.68,1.33-5.47,1.51-.98,4.14-.23,6.87-.23,1.88-2.58.76-9.52-2.76-11.34-.77-.4-2.38.5-3.44,1.08-1.37.75-2.49,2.34-3.89,2.57-2.76.45-3.8-1.23-2.08-3.39,1.74-2.19.57-3.57-.8-4.71-7.35-6.12-22.98-6.74-30.59.06-.16.14-.15.49-.5,1.81,3.44.05,6.76.57,9.89.04,8.63-1.45,15.64,2.73,17.75,11.09,1.11,4.39-.1,8.14-3.5,11.02-2.19,1.86-2.55,3.28-.24,5.38,5.67,5.14,11.14,10.49,16.78,15.66.8.73,2.12,1.28,3.2,1.28,9.65-.03,19.3-.23,28.95-.31,2.93-.02,4.7-.76,4.55-4.28-.12-2.87.11-5.87.87-8.63,1.46-5.29-1.28-8.38-5.27-10.58-1.46-.81-3.99-.77-5.54-.05-2.01.93-3.52,2.91-5.44,4.61.44.51,1.11,1,1.37,1.65.25.61.29,1.51,0,2.06-.17.33-1.2.42-1.77.29-3.15-.68-4.31-3.63-2.7-6.9.46-.94,1.16-1.76,1.73-2.64.55-.83,1.08-1.68,1.91-2.98-2.07-.13-3.54-.23-6.4-.41,1.75-2.25,2.66-4.63,4.13-5.05,2.08-.59,4.59.17,6.89.53,1.21.19,2.36.74,3.54,1.13.19-.45.38-.9.57-1.35-3.52-2.09-7.04-4.17-10.56-6.26-.09-.35-.17-.69-.26-1.04,2.51-.56,5.02-1.14,7.55-1.66,1.19-.25,2.39-.38,3.59-.57-.89-.93-1.77-1.87-2.68-2.77-.26-.26-.62-.41-2.21-1.44,2.96-.71,5.04-1.84,6.82-1.49,2.42.48,4.55,2.12,4.51,5.23-.01.91.11,1.88.43,2.73.25.65.98,1.66,1.36,1.6.75-.11,1.69-.71,2.03-1.37.59-1.15.73-2.53,1.14-3.78,1.42-4.36,5.46-5.47,9.12-2.6-1.27,1.26-2.56,2.54-3.85,3.82.23.27.45.55.68.82,2.04-.28,4.13-.99,6.09-.72,1.86.25,3.57,1.54,6.33,2.82-5.09,2.37-8.97,4.17-12.84,5.97.21.6.41,1.2.62,1.8,1.33-.42,2.72-.71,3.97-1.3,4.22-1.97,8.78-.73,10.55,3.06.4.85.37,1.9.49,2.58-4.86-.69-9.37-1.34-13.89-1.98-.07.55-.14,1.1-.21,1.65,1.64.19,3.27.46,4.91.55,4.26.24,7.87,4.42,7.23,8.58-.42,2.71-1.9,3.79-5.06,2.54.84-1.1,1.48-1.93,2.12-2.77-.09-.29-.08-.65-.25-.77-1.99-1.46-3.84-3.25-6.05-4.19-1.67-.71-4.51-1.15-5.59-.24-2.27,1.9-4.88,4.61-5.23,7.27-.53,4.06.73,8.35,1.24,12.54.35,2.9,2.06,4.08,4.9,3.97,1.32-.05,2.64.12,3.96.12,26.05.02,52.1.04,78.15.04,1.79,0,3.58-.21,5.87-.35-1.74-5.13-5.71-9.23-3.89-14.89,4.13,3.32,7.73,7.07,12.08,9.46,4,2.2,7.63,6.42,14.05,4.98-8.78-8.01-19.44-13.42-21.87-25.45.33-.35.66-.69.99-1.04,1.57,1.36,3.3,2.57,4.67,4.11,5.55,6.25,11.31,12.21,19.34,15.28,1.46.56,3.08.72,4.78.35-5.96-4.33-12.3-8.22-17.76-13.1-5.43-4.86-9.75-10.83-10.32-18.47.35-.25.71-.49,1.06-.74,1.2,1.41,2.49,2.75,3.59,4.24,5.55,7.47,12.59,13.08,21.02,16.95,1.03.47,2.35.34,4.5.62-5.9-5.05-11.28-9.01-15.86-13.74-4.44-4.59-9.57-8.87-11.36-15.76,8.68,6.73,17.98,11.68,28.52,13.86.3-.52.6-1.03.9-1.55-4.61-3.08-9.23-6.15-13.84-9.23-5.06-3.39-10.1-6.82-12.69-12.65-.49-1.11-.6-2.39-.1-4.29,1.38.77,2.82,1.46,4.14,2.32,6.49,4.27,12.93,8.61,19.44,12.85.99.64,2.23.89,3.72.59-6.79-5.61-13.57-11.23-20.36-16.84,3.51,1.94,6.89,4.21,10.58,5.71,3.21,1.3,6.28,4.25,10.9,2.35-6.75-3.45-12.86-6.63-19.07-9.62-.41-.2-1.52,1.08-2.3,1.67ZM705.04,691.6c.77,1.41,1.54,2.82,2.69,4.93.94-1.94,1.48-3.03,2.13-4.37,2.86,3.47,3.48.59,4.18-1.56,4.82,2.01,3.59-1.33,3.54-3.6.72,1.4,1.44,2.81,2.16,4.21l1.59-1.33c.56-1.11,1.12-2.22,1.68-3.33,1.71.15,2.83-.35,3.9-.92,1.76-.93,3.68-2.94,5.2-2.66,3.7.66,4.08-3.88,7.1-3.74.01-.74.03-1.47.04-2.21,3.79,1.7,7.95-.77,8.4-4.98q2.97,1.91,4.34-1.5c1.23-.18,2.41-.07,3.21-.57.4-.26.46-2.08.07-2.37-.87-.64-2.28-1.28-3.2-1-2.99.9-6.4,1.6-8.59,3.56-1.83,1.65-6.04,2.68-4.31,6.86-3.32-2.48-3.73-2.29-4.7,2.45-1.62-1.99-3.14-2.74-4.07.35-.08.28-.5.53-.81.64-3.68,1.33-7.4,2.55-11.01,4.05-.56.23-.58,1.75-.84,2.67-4.85-.29-8.81,1.9-12.61,4.53-4.22.79-4.72,2.29-1.47,6.51.53-2.55.95-4.58,1.37-6.61ZM474.09,685.38c.4,1.07.49,2.61,1.26,3.09,1.51.96,3.39,1.35,5.8,2.21.61-1.3,1.48-3.18,2.35-5.05-.32-.22-.65-.44-.97-.66-.95.41-1.91.83-2.85,1.24-.61-1.27-1.1-2.27-1.65-3.41-1.51,1.01-2.78,1.86-4.05,2.7.89-2.9,1.61-5.67-3.16-4.13-.49-1.03-.98-2.04-1.56-3.27-1.18.76-2.05,1.33-2.87,1.85-.65-1.5-1.16-2.7-1.67-3.89-.46.04-.91.09-1.37.13-.18,1.66-1.04,3.66-.41,4.91,1.4,2.76,8.87,5.28,11.14,4.27ZM511.83,680.45c1.63,3.82,3.16,7.38,4.67,10.95,1.46,3.45,2.88,3.99,6.09,2.13,2.62-1.52,5.19-3.13,7.75-4.76,2.03-1.29,3.53-1.41,4.66,1.21,1.09,2.54,2.6,4.89,3.82,7.38,1.83,3.72,3.25,4.11,6.69,1.66,2.15-1.53,4.24-3.14,6.37-4.69,2.04-1.49,3.79-1.62,5.24.89,1.32,2.27,2.82,4.44,4.3,6.62,2.49,3.67,3.82,3.8,7.2.74,1.96-1.77,4-3.46,5.83-5.37,1.86-1.94,3.37-1.68,4.9.27,1.96,2.49,3.96,4.94,5.85,7.48,1.57,2.12,3.16,2.11,4.9.3,2.29-2.38,4.59-4.75,6.84-7.18,1.8-1.94,3.34-2.23,5.15.12,1.85,2.4,4.08,4.51,5.99,6.86,1.91,2.36,3.7,2.27,5.49.01,1.97-2.48,3.88-5,5.77-7.54,1.49-2,3.07-2.31,4.94-.52,2.09,2.01,4.19,4.03,6.33,5.99,3,2.74,4.43,2.57,6.59-.74,1.51-2.32,3.05-4.63,4.41-7.04,1.51-2.69,3.38-2.62,5.53-.96,2.19,1.69,4.28,3.53,6.51,5.16,2.5,1.83,4.61,1.57,6.11-1.44,1.34-2.71,2.95-5.29,4.22-8.02.99-2.12,2.34-2.29,4.13-1.25,2.73,1.59,5.47,3.19,8.15,4.86,2.73,1.71,4.53,1.36,5.79-1.88,1.45-3.72,3.28-7.3,5.08-11.23,3.69,2.11,6.75,3.89,9.84,5.64,3.09,1.74,5.32,1.04,6.68-2.21,1.02-2.43,2.17-4.88,2.66-7.43.69-3.6,2.84-3.76,5.53-2.89,2.5.81,4.95,1.8,7.34,2.89,3.17,1.45,4.74.33,5.32-2.88.19-1.04.56-2.04.83-3.06,1.03-3.89.12-5.06-3.95-5.06-4.96,0-9.93.08-14.89-.03-3.96-.09-6.76.44-7.17,5.55-.37,4.61-2.61,5.23-6.73,2.97-3.16-1.73-6.4-3.32-9.77-5.05-2.2,5.09-4.21,9.72-6.26,14.46-1.34-.45-2.28-.59-3.04-1.05-2.02-1.24-4-2.54-5.92-3.94-4.85-3.54-5.25-3.4-7.96,2.08-1.47,2.96-3.21,5.79-5,8.99-4.46-3.34-8.2-6.14-12.37-9.26-3.42,4.58-6.64,8.9-10.67,14.3-2.91-3.4-5.16-5.99-7.36-8.62-2.09-2.5-4.04-2.54-6.07.1-1.77,2.3-3.66,4.5-5.51,6.74-1.6,1.93-3.09,2.15-4.81-.01-1.64-2.06-3.71-3.78-5.31-5.87-2.27-2.97-4.16-2.5-6.32.07-1.61,1.92-3.48,3.62-5.17,5.47-1.9,2.07-3.6,2.51-5.38-.18-1.45-2.19-3.19-4.19-4.67-6.36-1.69-2.48-3.41-3.01-5.71-.72-2.77,2.76-5.66,5.4-9.09,8.65-2.49-3.83-4.84-7.11-6.82-10.6-1.73-3.05-3.54-3.13-5.93-.91-1.64,1.52-3.26,3.07-5,4.48-3.64,2.95-5.09,2.48-7.08-1.71-1.53-3.23-3.4-6.29-5.2-9.57-4.9,3.07-9.07,5.69-13.73,8.61-2.35-5.3-4.39-9.88-6.57-14.78-3.42,1.76-6.37,3.17-9.2,4.77-4.37,2.47-6.83,1.71-7.29-3.38-.43-4.73-3.01-5.23-6.63-5.19-4.96.05-9.92.12-14.87.01-4.3-.09-5.22,1.03-4.17,5.44.25,1.03.34,2.09.57,3.12.59,2.67,1.89,3.95,4.81,2.72,2.9-1.22,5.93-2.15,8.87-3.29,2.43-.94,4.01-.61,4.6,2.29.49,2.45,1.35,4.83,1.98,7.25,1,3.84,2.87,4.64,6.35,2.82,3.36-1.76,6.8-3.37,10.92-5.4ZM745.79,257.95c-.16-.3-.31-.59-.47-.89-3.03.63-6.21.87-9.07,1.97-13.42,5.12-26.19,11.59-37.82,20.03-25.28,18.34-45.13,41.81-62.61,67.42-1.23,1.8-1.9,3.99-2.83,5.99,6.67-6.91,12.06-14.53,18.31-21.36,24.15-26.43,51.55-48.85,82.95-66.25,3.92-2.17,7.7-4.6,11.55-6.91ZM551.06,347.54c.43-.25.86-.49,1.29-.74-.49-1.08-.8-2.28-1.48-3.22-7.88-10.81-15.32-22-23.84-32.28-17.76-21.42-38.78-38.91-64.69-49.87-2.99-1.26-6.29-1.77-9.45-2.63-.21.39-.41.78-.62,1.17,37.39,24.17,72.9,50.46,98.78,87.57ZM515.07,704.79c1.19-.39,2.21-.72,3.22-1.05-.06.42-.12.85-.18,1.27,1.16.22,2.33.41,3.47.68.61.15,1.19.45,1.79.67,2.22.83,4.39,1.92,6.69,2.44,5.5,1.25,11.06,2.28,16.61,3.3,1.24.23,2.55.04,3.83.04-.16-1.51-.32-3.02-.49-4.52-1.17.31-2.34.62-3.51.92.08-.3.17-.6.25-.9-1.51-.28-3.02-.56-4.53-.85-18.94-5.12-37.67-11.18-56.63-19.08-1.56.69-3.32,2.06-1.43,5.24,1.09-.58,2.02-1.08,2.96-1.58.61,1.3,1.08,2.31,1.66,3.54.96-.87,1.66-1.51,2.57-2.34.63,1.61,1.13,2.89,1.77,4.51,1.08-.9,1.86-1.55,2.97-2.48.17,3.62,1.39,4.76,4.56,1.72-.05,4.14,1.61,4.48,3.98,2.54.63,1.29,1.15,2.37,2.29,4.72.87-1.88,1.31-2.83,1.86-4.03,1.04,1.72,1.68,2.77,2.47,4.06.93-.97,1.6-1.67,2.51-2.62.47,1.4.84,2.47,1.28,3.78ZM687.11,701.25c1.23.4,2.21.73,3.19,1.05.18-1.23.73-2.59.4-3.65-.23-.72-1.81-1.58-2.63-1.44-2.05.36-3.97,1.35-5.99,1.91-7.76,2.17-15.54,4.29-23.32,6.4-3.12.85-6.27,1.61-10.17,2.6.19.11-.63-.39-1.69-1.03-.65,1.49-1.17,2.66-1.68,3.83-.73-1.07-1.46-2.16-2.19-3.24-.34.08-.67.16-1.01.25v6.14c3.92-.66,7.37-1.18,10.8-1.82,3.38-.63,6.73-1.39,10.1-2.09.11.28.22.57.33.85.58-.94,1.17-1.88,1.23-1.98,3.11-.53,5.32-.9,8.22-1.4.17-.48.63-1.76,1.25-3.48.77,1.46,1.3,2.47,2.14,4.09,1.29-2.35,1.83-3.33,2.43-4.42.79.67,1.54,1.31,2.51,2.13.69-1.4,1.25-2.54,1.83-3.7.92.77,1.74,1.46,2.87,2.4.6-1.46,1.03-2.52,1.39-3.39ZM826.42,602.82c-.92-.97-1.93-2.21-3.1-3.25-5.25-4.64-11.61-7.17-18.24-8.86-4.41-1.12-9.05-1.66-13.6-1.75-1.34-.02-3.98,2.52-3.88,3.69.39,4.33,1.89,4.81,5.51,4.43,4.77-.5,9.77-1.13,14.39-.23,6.41,1.25,12.54,3.88,18.92,5.96ZM824.07,590.14c-6.43-7.48-12.76-15.29-22.16-19.24-4.93-2.07-5.5-1.38-7.15,3.66-.22.67-.71,1.25-.95,1.67,10.26,4.72,20.26,9.31,30.26,13.91ZM374.11,600.48c.25.49.49.98.74,1.47,1.07-.32,2.18-.53,3.19-.98,9.02-4.06,18.25-6.95,28.18-3.87,3.95,1.22,4.22-1.95,4.86-3.91.33-1.01-1.13-3.14-2.33-3.93-1.16-.76-3.15-.9-4.57-.54-6.84,1.75-13.73,3.43-20.35,5.82-3.5,1.26-6.5,3.92-9.72,5.95ZM405.3,576.25c-.34-.97-1.06-2.11-1.08-3.26-.04-2.6-1.61-3.2-3.6-2.87-1.65.27-3.47.79-4.74,1.79-6.68,5.28-13.23,10.74-19.79,16.18-.59.49-.95,1.25-1.66,2.21,10.62-4.84,20.71-9.43,30.86-14.06ZM818.06,614.42c-.09-.37-.18-.75-.27-1.12-1.63,0-3.28-.17-4.88.03-6.28.8-10.93,9.84-7.83,15.28.98,1.73,2.56,3.81,4.63,2.12,2.49-2.03,4.38-4.81,6.95-7.75-2.64-.88-4.11-1.38-5.59-1.87,3.12-.49,4.77-1.63,3.53-4.78,1.31-.72,2.38-1.32,3.46-1.91ZM384.25,616.21c-1.25,3.8,1.07,4.46,5.32,3.94-1.48.97-1.84,1.35-2.27,1.46-5.13,1.39-5.28,1.81-1.96,5.81.51.61.96,1.33,1.6,1.75,1.25.82,3.02,2.34,3.85,1.97,1.45-.65,2.88-2.34,3.41-3.9,1.67-4.96-1.46-11.74-6.34-13.51-2.02-.73-4.47-.32-6.72-.43-.04.42-.07.84-.11,1.26,1,.51,2.01,1.03,3.21,1.65ZM352.3,582.06c.3-.1.61-.2.91-.3.1-.71.46-1.52.26-2.13-2.28-6.69-4.48-13.42-7.08-19.99-.89-2.24-2.67-4.23-4.41-5.97-.7-.7-2.39-.41-3.63-.57-.06,1.09-.48,2.34-.1,3.25,1.26,3.02,2.69,6,4.29,8.86,3.17,5.66,6.5,11.24,9.76,16.85ZM565.96,715.33c3.03,0,5.65-.24,8.22.05,5.46.61,10.88,1.6,16.34,2.18.77.08,2.35-1.21,2.39-1.91.06-1.4-.7-2.83-1.12-4.25-.89.93-1.78,1.85-2.18,2.26-.96-.59-2.08-1.88-3.22-1.89-6.12-.04-12.28.41-18.17-1.76-2.33-.86-2.95.11-2.83,2.12.06,1.12.39,2.23.57,3.21ZM844.81,580.28c.66.4,1.31.8,1.97,1.2,4.04-7.24,8.22-14.41,12.04-21.77,1-1.92,1.48-6.29,1.21-6.38-3.42-1.08-4.52,2-6.15,4.09-.08.1-.14.23-.19.35-2.96,7.5-5.92,15-8.87,22.51ZM625.63,715.99c1.67-4.03,1.27-4.63-3.01-4.48-3.69.14-7.4.32-11.09.12-2.65-.14-4.14.47-3.95,3.37.19,3,2.13,2.68,4.27,2.41,4.43-.56,8.87-.93,13.77-1.42ZM568.62,675.14c1.44.88,2.55,1.55,3.65,2.23.07-1.49.39-3.03.09-4.43-.11-.5-1.7-.82-2.66-.98-3.34-.55-6.7-.98-10.29-1.49-.27.42-.77,1.2-.65,1.01-1.71-.61-2.87-1.03-4.03-1.45-.04,1.41-.34,2.89,0,4.2.14.54,1.61.95,2.52,1.05,3.38.4,6.78.64,10.64.98.11-.18.6-.93.73-1.12ZM607.53,677.5c1.45,1.48,8.21,1.39,9.49-.49.44-.65.6-1.85.3-2.54-.27-.62-1.35-1.24-2.08-1.24-3.23-.02-6.48.04-9.69.41-.74.08-1.76,1.4-1.89,2.26-.16,1.01.52,2.15.83,3.23.89-.48,1.79-.97,3.03-1.64ZM596.92,679.01c.12-.98.48-2.53.38-4.06-.03-.46-1.31-1.13-2.05-1.19-2.71-.21-5.45-.1-8.16-.29-1.86-.13-3.85-.13-3.58,2.2.11.99,2.05,2.28,3.32,2.51,3.04.55,6.18.55,10.09.82ZM631.92,674.81c.72.61,1.56,1.88,2.22,1.78,2.4-.34,5.05-.66,6.98-1.94.98-.65.64-3.31.87-4.93-4.36.83-7.66,1.33-10.89,2.13-1.12.28-2.61,1.09-2.93,2-.33.94.56,2.31.91,3.49.95-.85,1.9-1.71,2.83-2.54ZM661.33,666.67c-3.41.38-6.41.7-9.4,1.05-4.17.49-4.97,2.19-2.83,6.13,3.23-.8,6.47-1.69,9.75-2.39,3.51-.75,3.96-1.59,2.48-4.79ZM515.23,456.47c3.02-1.82,5.51-3.48,8.14-4.85,2.52-1.32,5.09-2.93,7.82-3.38,6.42-1.08,6.46-.83,7.51-2.84-8.79-2.05-21.96,5.17-23.47,11.08ZM654.57,447.03c8.48.08,15.27,4.56,22.23,8.55-2.2-6.88-13.82-11.36-22.23-8.55ZM458.32,672.53c-3.53-1.92-6.73-3.66-10.47-5.7-.74,1.08-1.67,2.45-2.2,3.22,3.95,2.58,7.09,4.63,10.46,6.83.63-1.25,1.48-2.91,2.21-4.35ZM588.1,479.4c-1.95-5.56-3.7-10.55-5.67-16.17-3.02,5.51-.19,13.35,5.67,16.17ZM583,445.93c-3.28,6.69-1.11,13.92,4.12,14.34-1.32-4.6-2.59-9.01-4.12-14.34ZM549.78,672.3c-.28-.72-.55-1.43-.83-2.15-1.62-.99-3.18-2.09-4.88-2.91-.65-.31-1.6,0-2.41.05-.96.07-1.93.16-2.89.25.4,1.22.45,3.1,1.25,3.52,2.08,1.07,4.47,1.65,6.79,2.1.9.17,1.97-.54,2.96-.86ZM606.36,461.68c4.56-2.84,5.13-6.96,5.23-11.18.02-.81-.83-1.64-1.28-2.46-.65.82-1.6,1.55-1.91,2.49-.77,2.33-1.33,4.74-1.81,7.15-.26,1.3-.17,2.66-.24,4ZM611.48,464.31c-2.37,4.6-4.47,8.98-4.97,14.69,5.55-4.2,7.31-9.75,4.97-14.69ZM700.02,694.56c-.36-.38-.72-.75-1.09-1.13-2.05,1.08-4.3,1.93-6.03,3.39-.52.44.41,2.59.68,3.96.37-.01.73-.02,1.1-.03.52-1.53,1.05-3.05,1.68-4.9.92,1.58,1.58,2.72,2.24,3.86.31-.05.62-.1.94-.14.16-1.67.32-3.33.48-5ZM604.18,448.58c4.61-2.79,5.38-6.11,2.62-10.21-.88,3.41-1.68,6.55-2.62,10.21ZM588.17,445.75c-.14-2.49-.28-4.98-.46-8.24-4.26,3.56-3.41,6,.46,8.24ZM642.55,671.6c.98,1.38,1.63,2.31,2.29,3.24.71-.97,1.81-1.88,2-2.94.15-.85-.81-1.9-1.27-2.86-.87.74-1.73,1.48-3.01,2.57ZM602.83,714.59c.82,1.18,1.47,2.13,2.13,3.08.59-1,1.64-2.01,1.64-3.01,0-.98-1.06-1.96-1.65-2.94-.62.84-1.24,1.69-2.12,2.88ZM627.39,674.38c-.97-1.12-1.71-1.97-2.45-2.81-.52,1.07-1.44,2.14-1.43,3.2,0,.97,1,1.95,1.56,2.92.68-.96,1.35-1.93,2.32-3.31ZM602.66,714.65c-.87-1.14-1.56-2.03-2.24-2.92-.5,1.07-1.41,2.14-1.39,3.2.02,1.02.98,2.03,1.53,3.05.62-.98,1.24-1.96,2.1-3.32ZM637.77,714.98c.49,0,.99.02,1.48.03v-6.05c-.49,0-.99,0-1.48-.01v6.03ZM575.66,677.87c.5-.02,1-.05,1.5-.07-.1-2.01-.2-4.02-.3-6.03-.5.02-1,.04-1.5.07-1.36,2.07-1.79,4.1.3,6.03ZM601.78,680.66c-.25-2.8-.42-4.76-.59-6.71-.67.15-1.8.12-1.95.48-.84,2.08-1.21,4.19,2.54,6.23ZM581.51,672.44c-.74.04-1.48.07-2.23.11.1,1.82.2,3.65.3,5.47.68-.08,1.94-.13,1.94-.24.09-1.77.02-3.56-.01-5.34ZM628.76,716.18c.52-.01,1.04-.02,1.56-.04v-5.98c-.52,0-1.04,0-1.56-.01v6.04ZM557.31,714.95c.46-.03.92-.05,1.38-.08v-6.11c-.46,0-.92.02-1.38.03v6.15ZM621.8,672.38c-.71-.09-1.42-.18-2.13-.27-.13,1.75-.3,3.5-.31,5.25,0,.09,1.32.19,2.03.28.14-1.75.27-3.51.41-5.26ZM561.72,715.25c.68.02,1.36.04,2.04.06,0-1.83.02-3.66-.09-5.48,0-.06-1.27-.05-1.95-.07v5.5ZM461.67,674.92c-.37-.3-.74-.59-1.11-.89-.7.76-1.87,1.46-1.99,2.31-.14,1.02.61,2.16.98,3.25.42-.09.85-.18,1.27-.26.28-1.47.56-2.94.85-4.41ZM550.46,674.4c.71-.02,1.42-.03,2.12-.05-.22-1.65-.42-3.31-.72-4.94,0-.04-1.58.12-1.58.19,0,1.6.1,3.21.19,4.81ZM554.43,707.84c-.58.01-1.16.03-1.75.04v5.34c.58-.05,1.67-.08,1.67-.17.1-1.73.07-3.47.07-5.21Z"/>
    <path class="cls-1" d="M806.58,202.87c42.99,37.42,73.84,83.13,91.9,137.32,18.08,54.25,21.96,109.72,10.12,165.64-16.29,76.93-56.14,139.73-118.71,187.27-61.15,46.46-130.82,67.6-207.48,63.58-153.16-8.03-263.35-120.1-290.71-244.26-17.4-78.98-7.32-154.64,32.02-225.62,18.39-33.18,55.97-77.39,68.2-81.93-4.22,4.39-7.78,8.17-11.41,11.86-14.41,14.62-26.49,31.07-37.47,48.34-10.56,16.6-19.34,34.18-26.47,52.49-3.91,10.04-7.08,20.42-9.78,30.85-3.24,12.48-6.09,25.11-8.27,37.82-2.94,17.11-2.92,34.46-2.95,51.8-.03,17.92,2.05,35.64,5.29,53.17,3.24,17.49,8.22,34.57,14.48,51.3,8.07,21.58,18.13,42.14,30.89,61.27,15.66,23.47,33.63,44.98,55.11,63.51,21.19,18.28,44.03,34.03,69.4,45.82,12.73,5.92,25.89,11.13,39.23,15.48,10.73,3.5,22.07,5.07,33.07,7.75,15.63,3.82,31.59,4.72,47.53,5.69,16.56,1.01,33.02-.52,49.34-3.19,13-2.13,26.03-4.4,38.75-7.72,11.56-3.02,22.93-7.06,34.03-11.52,10.23-4.11,20.24-8.94,29.92-14.23,21.02-11.48,40.3-25.45,58.23-41.41,20.09-17.88,37.03-38.38,51.86-60.62,11.34-17.01,21.16-34.98,28.02-54.31,5.45-15.36,10.9-30.81,14.8-46.6,6.32-25.61,9.13-51.8,7.49-78.2-1.06-16.98-2.28-34.06-5.27-50.77-2.74-15.36-7.46-30.43-12.17-45.36-8.23-26.04-20.93-49.98-36.07-72.65-12.36-18.5-26.72-35.33-42.79-50.71-.35-.34-.75-.64-1.12-.96.34-.3.67-.6,1.01-.9Z"/>
    <path class="cls-1" d="M595.86,215.44c-.93-4.47-1.78-8.95-2.8-13.4-2.03-8.84-5.44-17.06-11.45-24-1.19-1.38-2.54-2.72-4.06-3.68-3.16-2-5.12-1.01-5.8,2.66-.58,3.13-1.84,3.69-4.56,1.99-5.54-3.45-5.58-12.46.22-17.9,3.72-3.49,7.93-6.18,13.56-4.1.8.3,2.36-.19,2.97-.86,4-4.33,7.83-8.8,12.41-14.03,4.08,4.39,8.52,8.16,11.56,12.83,1.72,2.64,3.03,3.06,5.56,2.62,9.8-1.71,18.41,6.2,16.85,15.9-.37,2.29-2.28,4.71-4.15,6.27-1.79,1.49-4.18,1.92-4.38-2.05-.16-3.3-2.63-4.23-5.47-2.6-8.15,4.68-11.84,12.53-14.56,20.9-2.07,6.35-3.51,12.91-5.23,19.38-.23.03-.45.05-.68.08Z"/>
    <path class="cls-1" d="M350.86,539.14c1.33-2.24,1.85-3.74,2.87-4.7,1.41-1.32,3.17-2.3,4.86-3.26.6-.34,1.66-.55,2.16-.25,2.35,1.42,4.68,2.91,6.77,4.67.54.46.26,2.88.23,2.88-4.84.41-5.62,5.1-8.33,8.18-1.64-3.65-1.35-8.75-8.56-7.51Z"/>
    <path class="cls-1" d="M830.83,538.73c-.35-3.85,2.71-4.27,4.6-5.89,2.4-2.05,4.24-2.72,6.65-.22.77.8,2.26.91,3.05,1.7.83.83,1.21,2.1,1.79,3.17-.9.44-1.92.74-2.68,1.36-1.15.94-2.34,1.97-3.1,3.22-.78,1.28-1.05,2.87-1.77,4.98-2.37-3.88-3.42-8.44-8.54-8.33Z"/>
    <path class="cls-1" d="M563.05,593.31c.78-.59,1.9-1.87,2.3-1.67,6.2,2.99,12.32,6.17,19.07,9.62-4.61,1.9-7.69-1.05-10.9-2.35-3.69-1.5-7.06-3.77-10.58-5.71,0,0,.1.11.1.11Z"/>
  </g>
  <g>
    <path class="cls-1" d="M808.96,1031.38c0-4.5.05-8.99-.02-13.49-.04-2.76.98-4.22,3.97-4.04,5.14.31,10.33.13,15.42.82,6.81.92,9.45,7.51,5.33,13.02-1.48,1.98-1.3,3.3.32,4.72,2.83,2.47,4.09,5.46,3.03,9.16-1.19,4.13-4.6,5.96-8.32,6.33-5.64.56-11.35.31-17.04.41-2.42.04-2.74-1.53-2.72-3.44.03-4.5,0-8.99,0-13.49h.02ZM821.83,1032.17c-10.3.08-10.69.46-9.71,9.61.03.26-.05.61.09.77.89,1.01,1.82,2.81,2.74,2.81,4.96-.02,9.96-.21,14.86-.92,3.21-.47,4.3-3.16,4.04-6.3-.25-3.08-2.08-4.82-4.94-5.34-2.32-.42-4.71-.43-7.07-.63ZM820.83,1016.71s0,.05,0,.08c-1.05,0-2.11,0-3.16,0-5.11.04-5.59.53-5.62,5.68,0,.79.04,1.58,0,2.37-.16,3.16,1.47,4.74,4.49,4.66,3.54-.1,7.08-.39,10.6-.78,3.32-.37,4.75-2.62,4.78-5.75.03-3.42-1.88-5.39-5.18-5.89-1.94-.29-3.93-.26-5.9-.38Z"/>
    <path class="cls-1" d="M562.86,1048.09c-1.11-.51-2.43-.79-3.29-1.57-1.04-.95-1.92-2.22-2.5-3.52-2.77-6.29-8.13-6.35-13.64-5.57-1.03.15-2.28,1.86-2.62,3.08-.48,1.73-.02,3.7-.36,5.49-.14.74-1.32,1.27-2.03,1.9-.47-.68-1.34-1.35-1.34-2.03-.08-9.77-.13-19.54.11-29.31.02-.92,2-2.53,3.09-2.55,4.73-.07,9.49.16,14.21.6,4.52.42,7.68,3.17,8.84,7.41,1.29,4.71.66,9.43-3.8,12.37-3.08,2.03-2.46,3.78-.69,6.1,1.64,2.15,3.12,4.44,4.67,6.66-.21.31-.43.63-.64.94ZM540.77,1025.35c0,1.98-.34,4.04.12,5.91.3,1.22,1.77,3.05,2.72,3.05,3.77.02,7.69-.06,11.28-1.06,4.77-1.33,6.61-6.15,5-10.78-1.83-5.24-6.13-5.56-10.63-5.56-9.17,0-8.62-.99-8.5,8.44Z"/>
    <path class="cls-1" d="M297.52,1048.16c-1-.57-2.13-.99-2.95-1.74-.95-.87-1.93-1.93-2.39-3.1-2.51-6.38-7.66-6.59-13.32-6.1-2.36.2-3.32,1.13-3.25,3.42.06,1.71.16,3.46-.12,5.13-.13.78-1.1,1.42-1.69,2.12-.62-.72-1.7-1.4-1.76-2.17-.23-2.75-.13-5.53-.13-8.3,0-6.2.12-12.4-.03-18.59-.09-3.59,1.48-5.13,4.95-4.94,4.34.24,8.7.26,13,.8,4.59.58,7.84,3.74,8.57,8.08.78,4.64.32,9.18-4.13,11.86-2.42,1.46-2.4,2.76-1.09,4.73,1.73,2.58,3.45,5.16,5.18,7.74-.27.36-.55.72-.82,1.09ZM275.61,1025.39c.18,9.99-1.58,9.35,9.77,9.07,1.65-.04,3.35-.62,4.91-1.25,6.05-2.47,7.4-10.04,2.18-13.93-2.1-1.57-5.31-2.22-8.04-2.27-9.85-.16-8.74-1.13-8.83,8.38Z"/>
    <path class="cls-1" d="M633.34,1021.35c-.31,2.63-.62,4.13-.63,5.64-.07,5.94.03,11.89-.14,17.83-.03,1.02-1.06,2.02-1.62,3.02-.66-.95-1.87-1.89-1.89-2.84-.15-9.11-.16-18.23-.03-27.34.02-1.06,1.13-2.1,1.74-3.15,1.16.71,2.62,1.18,3.44,2.17,5.51,6.73,10.87,13.58,16.33,20.35.83,1.03,1.98,1.8,3.89,3.51.87-9.45-.31-17.89.71-26.14l1.61-.05c.29,1.28.83,2.56.84,3.84.08,8.72.09,17.43,0,26.15-.01,1.17-.74,2.33-1.13,3.49-1.15-.73-2.59-1.23-3.41-2.24-5.48-6.75-10.82-13.62-16.22-20.44-.8-1.01-1.73-1.91-3.48-3.81Z"/>
    <path class="cls-1" d="M903.33,1047.72c-.2-.46-.57-.92-.57-1.38-.04-9.76-.05-19.51-.03-29.27,0-2.27,1.25-3.35,3.53-3.23,4.6.25,9.21.37,13.79.79,4.74.44,7.66,3.39,8.93,7.79,1.32,4.62.05,8.88-3.8,11.65-3.21,2.31-2.87,4.11-.7,6.71,1.57,1.89,2.78,4.07,3.74,6.99-.91-.23-2.09-.17-2.68-.74-1.13-1.06-2.12-2.38-2.83-3.77-2.52-4.92-6.26-6.75-11.87-6.16-3.66.38-5.28,1.37-5.11,5.16.09,1.91-.54,3.86-.85,5.79-.52-.11-1.04-.22-1.55-.34ZM905.76,1025.33c.02,9.5.05,9.6,9.41,9.11,2.18-.11,4.57-.58,6.39-1.67,1.62-.97,3.22-2.87,3.7-4.66,1.75-6.43-1.74-10.81-8.43-11.16q-11.1-.59-11.08,8.39Z"/>
    <path class="cls-1" d="M760.4,1039.57c2.12-2.89,3.28-4.48,4.44-6.07.37.17.73.34,1.1.51-.53,2.29-1.58,4.61-1.43,6.85.14,2.13,1.53,4.17,1.97,6.93-3.55-4.22-6.49-1.91-10.07-.69-3.52,1.2-7.97,1.43-11.51.39-6.84-2.02-8.15-10.21-2.43-14.66,3.45-2.68,4.21-4.62,1.84-8.5-2.38-3.9-.91-7.82,2.53-9.34,5.22-2.3,10.41-.85,12.14,3.5,1.55,3.89-1.09,6.42-3.59,8.39-2.91,2.3-2.72,3.87-.25,6.23,1.88,1.8,3.33,4.06,5.25,6.46ZM750.17,1045.87c.53-.02,1.12.11,1.57-.1,2.2-.99,4.35-2.07,6.52-3.12-1.03-1.84-1.95-3.76-3.13-5.5-.8-1.19-1.99-2.1-2.94-3.2-2.34-2.71-4.74-2.36-7.22-.24-2.43,2.07-3.69,4.78-2.53,7.76,1.28,3.27,4.32,4.39,7.73,4.41ZM746.36,1021.04c.02,2.98,2.14,5.75,4.31,5.63,2.52-.13,5.67-3.58,5.65-6.24-.03-3.07-2.07-4.06-4.67-4.16-3.6-.14-5.31,1.48-5.29,4.77Z"/>
    <path class="cls-1" d="M340.92,1016.89c-2.55,0-5.09,0-7.64,0-2.64,0-5.28.04-7.92.02-2.27-.02-3.46,1.01-3.42,3.33,0,.4-.02.79-.03,1.19-.22,7.55-.05,7.65,7.51,7.78,3.08.05,6.14.51,9.21.78-.03.58-.06,1.17-.08,1.75-1.45.19-2.89.49-4.34.54-2.77.1-5.54.1-8.31.06-2.79-.03-3.94,1.19-4.03,4.07-.28,8.87-.19,9.07,8.65,9.09,2.9,0,5.81-.08,8.71.07,1.09.05,2.16.63,3.23.97-.03.38-.07.75-.1,1.13-.92.21-1.84.6-2.76.61-5.94.04-11.87-.06-17.81,0-2.27.02-3.43-.73-3.42-3.17.04-9.24-.08-18.47.1-27.71.02-1.17,1.45-3.28,2.29-3.31,6.19-.23,12.39-.07,18.58.08.61.01,1.21.77,1.82,1.19-.08.51-.16,1.02-.24,1.53Z"/>
    <path class="cls-1" d="M468.72,1048.28c-1.07-1.54-2.54-2.94-3.13-4.64-1.18-3.43-3.26-4.83-6.84-4.56-2.76.21-5.59.34-8.31-.04-5.26-.74-8.07,1.56-9.62,6.37-.36,1.12-1.9,1.86-2.89,2.77-.36-.33-.72-.67-1.08-1,2.28-5.13,4.53-10.26,6.84-15.37,2.17-4.8,4.28-9.64,6.65-14.34.64-1.27,2.03-2.84,3.2-2.94,1-.09,2.6,1.51,3.19,2.73,4.37,8.99,8.57,18.05,12.75,27.13.44.96.4,2.13.59,3.2l-1.33.7ZM453.48,1018.08c-2.18,4.56-3.77,7.8-5.29,11.08-3.13,6.77-2.67,7.46,4.85,7.47,8.91.01,9-.02,5.62-8.3-1.29-3.16-3.07-6.12-5.18-10.24Z"/>
    <path class="cls-1" d="M883.56,1048.33c-1.01-1.18-2.46-2.2-2.94-3.57-1.43-4.1-3.64-6.41-8.39-5.73-2.85.41-5.84.39-8.7.05-4.28-.52-6.24,1.63-7.59,5.25-.55,1.49-1.82,2.71-2.76,4.05-.47-.22-.93-.45-1.4-.67.24-1.14.28-2.37.74-3.4,4.12-9.11,8.27-18.22,12.56-27.25.55-1.15,1.93-2.57,2.99-2.62,1.06-.05,2.69,1.23,3.2,2.33,4.55,9.63,8.91,19.35,13.3,29.06.2.44.11,1,.16,1.51-.39.33-.78.66-1.17.99ZM868.95,1019.21c-.44-.08-.88-.16-1.32-.24-2.28,4.79-4.68,9.53-6.67,14.44-.23.56,1.74,2.81,2.88,2.98,2.97.45,6.04.25,9.07.18,2.68-.06,3.09-1.76,2.2-3.81-1.97-4.56-4.11-9.04-6.18-13.55Z"/>
    <path class="cls-1" d="M611.18,1048.21c-.96-.77-2.51-1.38-2.79-2.34-1.67-5.88-5.51-7.8-11.26-6.8-.9.16-1.85.09-2.77.02-5.38-.39-10.36-.24-11.93,6.52-.2.88-1.78,1.43-2.73,2.14,0-1.2-.41-2.58.04-3.57,4.16-9.22,8.42-18.4,12.76-27.54,1.57-3.29,3.9-3.61,5.42-.5,4.99,10.24,9.62,20.65,14.39,31-.38.36-.76.71-1.14,1.07ZM596.26,1019.17c-1.08.7-1.87.93-2.11,1.41-2.04,4.22-4.13,8.43-5.78,12.8-.24.64,1.63,2.88,2.75,3.08,2.68.47,5.49.2,8.24.15,2.84-.05,3.84-1.42,2.69-4.1-1.84-4.3-3.72-8.57-5.79-13.34Z"/>
    <path class="cls-1" d="M381.2,1017.83c-1.09-.16-2.17-.42-3.27-.48-3.15-.18-6.31-.52-9.44-.33-3.09.18-5.18,2.11-5.47,5.26-.31,3.28,1.79,5.08,4.68,5.99,3.01.95,6.09,1.69,9.11,2.64,4.47,1.4,7.09,4.25,7.12,7.98.04,4.2-2.33,7.17-6.03,8.48-5.85,2.06-11.69,1.54-17.1-1.77-.42-.26-.72-.76-.96-1.21-.17-.32-.16-.74-.38-1.85,2.65.88,4.9,1.63,7.16,2.37,3.8,1.25,7.55,1.34,11.09-.78,4.1-2.46,4.02-7.38-.35-9.34-3.82-1.71-7.9-2.84-11.91-4.1-4-1.25-5.72-4.12-5.65-8.05.08-3.96,2.08-7.22,6.02-7.73,4.45-.58,9.05-.1,13.58.13.8.04,1.55,1.17,2.32,1.79-.17.33-.34.67-.52,1Z"/>
    <path class="cls-1" d="M489.54,1014.35c.27,1.39.75,2.78.78,4.18.14,5.54-.23,11.12.27,16.63.79,8.77,8.93,13.08,16.37,8.95,3.74-2.08,5.02-5.67,5.15-9.65.17-5.28.02-10.56.09-15.85.02-1.36.36-2.72.55-4.09.37-.06.74-.13,1.11-.19.46,1.17,1.31,2.35,1.3,3.52-.06,6.86-.06,13.73-.58,20.56-.44,5.74-6.11,9.87-12.78,9.98-7.25.12-13.42-3.79-13.89-9.65-.59-7.35-.39-14.77-.43-22.15,0-.75.67-1.5,1.03-2.25.34,0,.68,0,1.02.01Z"/>
    <path class="cls-1" d="M674.67,1016.88c2.99-3.91,24.24-3.95,27.38-.56-2.03.21-3.62.5-5.22.53-6.66.1-6.67.07-6.68,6.88-.01,6.47.11,12.95-.08,19.42-.05,1.58-1.08,3.13-1.66,4.69-.6-1.48-1.69-2.96-1.73-4.46-.18-7.39-.2-14.79-.04-22.19.07-3.29-1.18-4.58-4.42-4.34-2.25.17-4.52.03-7.54.03Z"/>
    <path class="cls-1" d="M397.11,1016.88c3.66-3.85,24.61-3.96,28.33-.3-3.23.11-5.57.33-7.9.25-3.63-.12-5.24,1.22-5.11,5.11.24,7.38.11,14.77.01,22.15-.02,1.31-.64,2.61-.98,3.91-.47-.07-.93-.13-1.4-.2-.16-1.33-.44-2.65-.45-3.98-.05-7.52-.17-15.03.03-22.55.09-3.34-1.21-4.55-4.37-4.4-2.38.11-4.76.02-8.17.02Z"/>
  </g>
  <g>
    <path class="cls-1" d="M400.62,864.51c-.17,1.87-.49,3.74-.49,5.61-.03,29.75,0,59.5-.1,89.25,0,2.01-.78,5.58-1.69,5.74-3.4.61-7.02.23-10.53-.11-.42-.04-.95-2.04-.95-3.13-.05-39.93-.03-79.87-.07-119.8,0-3.11,1.38-4.06,4.36-4.16,4.59-.16,7.72,1.42,10.67,5.17,24.56,31.22,49.35,62.26,74.11,93.32.82,1.03,2.12,1.66,3.2,2.48.44-1.39,1.26-2.78,1.27-4.17.06-30.02,0-60.03.08-90.05,0-2.09.53-5.73,1.48-5.97,3.07-.75,6.5-.55,9.68-.03.77.12,1.58,2.83,1.61,4.36.17,9.12.13,18.25.13,27.37-.01,29.62,0,59.24-.14,88.86-.01,2.09-.92,5.78-1.91,5.96-3.54.64-7.7,1.96-10.64-1.73-6.26-7.84-12.45-15.73-18.68-23.59-16.97-21.41-33.94-42.82-50.91-64.22-3.01-3.8-6.03-7.58-9.04-11.38-.48.07-.96.14-1.44.21Z"/>
    <path class="cls-1" d="M778.11,902.08c0-19.7.09-39.39-.09-59.08-.04-3.93,1.45-5.12,5.06-5.12,26.04.05,52.08,0,78.12.04,4.07,0,4.4.87,4.47,6.91.04,3.37-1.17,4.69-4.65,4.67-21.28-.12-42.56-.08-63.84-.07-5.62,0-5.75.15-5.75,5.8,0,11.5-.01,23,.01,34.5,0,4.7.47,5.17,5.28,5.18,18.51.03,37.01-.02,55.52.1,1.78.01,4.82.62,5.08,1.57.71,2.55.59,5.5.02,8.13-.16.76-2.92,1.36-4.49,1.37-11.76.12-23.53.06-35.29.07-7.01,0-14.01.07-21.02.01-3.58-.03-5.23,1.3-5.18,5.16.18,12.69.18,25.38.03,38.07-.04,3.84,1.46,5.03,5.17,5.01,21.94-.11,43.88-.04,65.83-.05,5.67,0,8.69,4.76,5.81,9.69-.61,1.05-2.9,1.58-4.42,1.59-16.13.11-32.25.08-48.38.07-10.97,0-21.94-.13-32.91.03-3.48.05-4.48-1.12-4.45-4.58.15-19.69.07-39.39.07-59.08Z"/>
    <path class="cls-1" d="M195.59,957.9c-.81-8.49,4.41-15,7.51-22.14,6.24-14.37,12.89-28.58,19.42-42.83,7.07-15.44,14.2-30.84,21.31-46.26.17-.36.39-.69.55-1.05,3.41-7.78,5.76-9.12,14.22-7.47,1.39.27,3.09,1.62,3.7,2.91,11.84,25.43,23.55,50.93,35.25,76.42,6.7,14.6,13.33,29.23,20.01,43.83,1.51,3.3.97,4.2-2.68,4.37q-9.08.42-12.85-7.78c-3.41-7.43-7.01-14.78-10.12-22.34-1.33-3.22-3.4-4.02-6.42-4.01-15.74.02-31.47-.02-47.21,0-5.42,0-10.84.17-16.26.12-2.38-.02-3.86.71-4.89,3.05-4.03,9.15-8.52,18.11-12.3,27.36-1.52,3.71-3.93,3.85-6.89,3.52-3.63-.41-1.92-3.39-2.31-5.33-.16-.76-.03-1.58-.03-2.38ZM254.76,852.78c-1.4,1.85-2.47,2.86-3.04,4.11-2.47,5.37-4.77,10.83-7.19,16.23-6.39,14.28-12.78,28.56-19.24,42.81-1.65,3.65-.91,4.96,3.33,4.97,17.17.03,34.34.03,51.51-.01,4.4,0,4.75-.59,3.03-4.51-5.56-12.65-11.1-25.31-16.73-37.93-3.68-8.27-7.49-16.48-11.67-25.66Z"/>
    <path class="cls-1" d="M996.42,889.24c0,15.19.68,30.43-.18,45.57-1.01,17.71-12.1,30.38-31.18,31.51-12.46.74-23.92-1.34-33.58-9.84-.59-.52-1.2-1.03-1.77-1.58-5.73-5.63-5.7-6.29-.2-12.02,1.9-1.98,3.21-2.55,5.31.06,7.09,8.82,16.28,12.83,27.77,12.13,12.1-.74,18.7-8.39,20.5-19.32.53-3.24.53-6.59.54-9.88.04-23.92-.03-47.84.09-71.76.02-3.73-1.4-4.79-4.92-4.74-12.02.15-24.05.09-36.08.07-5.47-.01-5.89-.48-5.88-5.87,0-5.05.55-5.63,5.75-5.64,16.26-.03,32.51-.03,48.77-.02,5.15,0,5.42.27,5.42,5.34.01,15.33,0,30.66,0,45.99-.13,0-.25,0-.38,0Z"/>
    <path class="cls-1" d="M125.33,901.57c2.76,2.48,5.66,4.82,8.25,7.47,17.94,18.39,12.8,47.32-11.79,52.5-23.73,4.99-48.84,3.92-73.35,4.08-3.14.02-8.96-8.56-9.08-13.27-.82-32.88-.32-65.79-.55-98.69-.07-10.54,4.54-14.69,14.97-14.27,13.89.56,27.83-.04,41.73.48,15.66.58,32.95,3.23,37.87,19.5,3.64,12.03-1.07,26.59-2.06,40.02-2,.73-4,1.46-6,2.19ZM83.18,956.35c.07.43.14.85.21,1.28,11.14-1.71,22.85-1.8,33.28-5.5,16.47-5.84,21.11-30.7,6.44-35.42-20.66-6.65-43.93-5.25-66.11-7.01-1.23-.1-3.8,2.31-3.83,3.59-.27,12.49-1.76,25.35.92,37.24.76,3.39,13.97,4.1,21.53,5.74,2.41.52,5.03.08,7.56.08ZM79.78,898.01c9.92-1.35,20.88-.58,29.42-4.75,6.54-3.2,13.73-12.59,13.84-19.34.11-6.76-7.2-18.35-13.02-19.6-16.29-3.49-33.49-3.05-50.35-3.31-2.49-.04-6.28,4.11-7.39,7.1-9.23,24.87.94,39.12,27.5,39.9Z"/>
    <path class="cls-1" d="M1178.9,960.53c-4.07-6.03-9.37-11.58-11.92-18.19-4.41-11.44-11.57-16.26-23.68-15-6.63.69-13.44.83-20.06.12-20.4-2.18-37.49.46-43.15,24.52-.71,3-5.4,5.07-10.94,9.95,0-6.95-1.03-10.59.16-13.23,15.01-33.28,30.15-66.51,45.82-99.49,2.03-4.27,6.86-8.93,11.13-9.79,2.83-.57,8.46,4.62,10.25,8.44,16.01,34.16,31.48,68.58,46.93,103,.85,1.88.11,4.48.11,6.74-1.55.98-3.11,1.96-4.66,2.94ZM1128.61,857.35c-1.85.07-3.7.14-5.55.21-8.45,18.67-16.91,37.34-26.58,58.71h58.22c-9.5-21.46-17.8-40.19-26.09-58.92Z"/>
  </g>
</svg>